<svg xmlns="http://www.w3.org/2000/svg" viewBox="0 0 260.29 39.02"><defs></defs><g id="Layer_2" data-name="Layer 2"><g id="Layer_1-2" data-name="Layer 1"><path d="M41.49,30.74v-1c1-.16,1.58-1.06,2.06-1.89,1.54-2.82,2.34-6.1,3.27-9.17a28.86,28.86,0,0,0,1.28-4.75c.1-.8-1.12-1.16-1.76-1.16v-1h4.75l5.77,15.14c.38,1,1.12,2.73,2.37,2.85v1Zm4.78-3.92c-.16.42-1,2.5-.22,2.67.32.06,1.38,0,2,0h4.87a.85.85,0,0,0,.9-.93,7.63,7.63,0,0,0-.58-1.77ZM49.61,16l-2.82,9.3h5.84Z"/><path class="cls-3" d="M38.37,14.47v14l.87,1L36.77,31.7l-2.41-2.21.87-1v-6.8H31.48v1.89H30V21.69H26.22v7l-3,3.49V22.3l-1.41-1.44,1.41-1.35v-5.1a1.55,1.55,0,0,0-1.57-1.7v-.9h6.28v.87c-1.15,0-1.57.54-1.57,1.63v5.87H30v-1.6h1.45v1.6h3.75V14.64c0-1.16-.35-1.93-1.63-1.9v-.9h6.28v.9C38.69,12.71,38.37,13.42,38.37,14.47Z"/><path class="cls-3" d="M20.5,16.91c0,4.33-3,5.58-6.9,5.55-.51,0-1,.07-1.54.1V29L8.92,32.47l0-9.94c-1.67,0-1.77,1.31-1.73,2.24h-.9V13.45c0-.68-.64-.8-.84-.84v-.8h8c3.27,0,7.09,1.22,7.09,5.13ZM8.92,13.67c0-.45-.51-.77-1-.8V20a1,1,0,0,0,1,1.16Zm3.75-.51c-.7.06-.61.29-.61.9l0,7c3,0,5.16-.45,5.16-3.95C17.19,14.31,15.24,13,12.67,13.16Z"/><path class="cls-3" d="M66.17,16.37V28.2c0,1,.42,1.51,2,1.51v1l-6.86,0-.07-1.09c1.44,0,1.83-.39,1.83-1.48l0-13.31c0-1.44-.55-2.18-1.83-2.18v-.87h18.7l0,.87c-1.29,0-1.8.45-1.8,1.22V27.82a2.78,2.78,0,0,0,.06,1,7.14,7.14,0,0,0,6,3.85l0,1.13-.61,0a10.71,10.71,0,0,1-8.08-5c-2-2.92-6.45-8.63-6.45-8.63ZM74.93,14c0-.86-1.41-.7-2-.7H67.2a.41.41,0,0,0-.35.67L75,24.9V14Z"/><path class="cls-3" d="M83.57,14.64c-.16.54-.29,1.21-.48,2.24H81.93V11.81H97v5.13H95.72c0-.19-.22-3.78-1.09-3.78H91l0,15.43.86.9L89.47,31.7l-2.41-2.28.84-1,0-15.3H84.66C84,13.1,83.76,14.06,83.57,14.64Z"/><path class="cls-3" d="M94.74,30.74v-1c1-.16,1.57-1.06,2.05-1.89,1.54-2.82,2.34-6.1,3.27-9.17a28.9,28.9,0,0,0,1.29-4.75c.09-.8-1.13-1.16-1.77-1.16v-1h4.75l5.77,15.14c.39,1,1.13,2.73,2.38,2.85v1Zm4.78-3.92c-.16.42-1,2.5-.23,2.67.32.06,1.38,0,2,0h4.87a.85.85,0,0,0,.9-.93,7.59,7.59,0,0,0-.57-1.77ZM102.85,16,100,25.28h5.84Z"/><path class="cls-3" d="M120.89,31.12c-1.63,0-3-.67-4.55-.93-.87-.16-.58,1-.58,1.48h-1.09v-7h1c.52,3.34,1.48,4.75,4.91,4.75,1.67,0,3.63-.9,3.69-2.44.19-4.71-10.23-4.91-10.23-10.74a4.74,4.74,0,0,1,.38-1.64c1-2.24,3.21-3.11,5.65-3.08a7.32,7.32,0,0,1,3.21.64c.54.29,1.38.42,1.34-.48h1.42v6.16h-.78a7.54,7.54,0,0,0-.67-2.44c-.7-1.76-2.72-2.12-4.36-2.18s-3,.58-3,2.28c0,2,3.24,3.46,4.87,4.36,2.6,1.44,4.46,2.47,5.17,5.45.06.26.35.23.54.23h1C128.14,29.29,124.64,31.12,120.89,31.12Z"/><path class="cls-3" d="M153,30.77h-6.73v-.93A1.58,1.58,0,0,0,148,28.23V14.92l-5.29,3.15V28.62l.87,1L141.3,31.7,139,29.61l.83-.89V18.1L134.56,15V28.07a1.58,1.58,0,0,0,1.73,1.8v.9h-6.7V29.9c1.35,0,1.83-.7,1.83-1.6l0-14.08c0-.9-.42-1.51-1.77-1.51v-.87h23.16l0,.93c-1.32,0-1.57.52-1.57,1.48v14c0,1,.51,1.61,1.79,1.61ZM139.41,13.22l-4.75,0c1.57.9,3.5,2,5.13,2.86V13.45A.52.52,0,0,0,139.41,13.22Zm3.88.07c-.13,0-.52.06-.52.19v2.6l5-2.79Z"/><path class="cls-3" d="M155.71,30.74v-1c1-.16,1.58-1.06,2.06-1.89,1.54-2.82,2.34-6.1,3.27-9.17a28.86,28.86,0,0,0,1.28-4.75c.1-.8-1.12-1.16-1.76-1.16v-1h4.75l5.77,15.14c.38,1,1.12,2.73,2.37,2.85v1Zm4.78-3.92c-.16.42-1,2.5-.22,2.67.32.06,1.38,0,2,0h4.87a.85.85,0,0,0,.9-.93,7.63,7.63,0,0,0-.58-1.77ZM163.83,16,161,25.28h5.84Z"/><path class="cls-3" d="M174.16,11.91h12a3.74,3.74,0,0,0,.58,0c.1,0,.16-.07.23-.45h1.08v5.16h-1.21c-.07-2.24-1.09-3.24-2.64-3.4h-3.94c-3.43,0-4.07,5.42-4.07,8.38,0,3.84,1.89,7.85,6,7.85,1.18,0,3.24-.06,3.24-1.66V23.36c0-1.61.13-2.05-1.83-2.09v-1h6.25v1c-1.31,0-1.57.48-1.63,1.61,0,.32,0,.64,0,.93v6.73l-2.86,3.92s0-2.92,0-3.92c-6.54,2.15-12.12-1.47-12.64-8.56-.09-1.28.23-6.13,2.79-8,.68-.51-.57-1.19-1.35-1.19Z"/><path class="cls-3" d="M201.5,31v.73h-.22c-3.08,0-5.13-1.18-7.22-3.4a9.82,9.82,0,0,1-2.5-7,9.59,9.59,0,0,1,9.34-9.59v-.67c6,0,9.94,4.42,9.94,10.29A9.56,9.56,0,0,1,201.5,31Zm-.22-1.51c4.11,0,6.42-4.46,6.35-8.09,0-2.85-1.57-8.14-6.35-8.14-4.23,0-6.48,4.07-6.48,7.86S197.14,29.52,201.28,29.52Z"/><path class="cls-3" d="M231.51,33.69c-.68,0-1.06,0-1.45,0-4.55,0-9.75-8-11.9-11.45h-1.41v6c0,.9.29,1.57,1.61,1.57v1H212l0-1c1.29,0,1.54-.67,1.54-1.57V14.15c0-1-.45-1.44-1.47-1.44v-1h6.29c3.2,0,7,1,7,5.16,0,2.92-1.61,4.49-4.24,5a42.93,42.93,0,0,0,2.83,4.33c1.34,2,4.87,6.73,7.57,6.44ZM218.32,13.32c-.29,0-.8,0-.8,0-.86,0-.77.57-.77,1.15l0,6.45c2.69-.13,5.26-.93,5.26-3.95A3.26,3.26,0,0,0,218.32,13.32Z"/><path class="cls-3" d="M235.27,12.71c-1.19,0-1.41.58-1.41,1.44V28.4l.83,1-2.31,2.21L230,29.42l.83-1v-14c0-.87-.29-1.61-1.51-1.61v-1h5.94Z"/><polygon class="cls-3" points="232.35 10.02 229.94 7.61 232.35 5.2 234.82 7.61 232.35 10.02"/><path class="cls-3" d="M236.94,30.74v-1c1-.16,1.57-1.06,2.05-1.89,1.54-2.82,2.34-6.1,3.27-9.17a28.9,28.9,0,0,0,1.29-4.75c.1-.8-1.12-1.16-1.77-1.16v-1h4.75l5.77,15.14c.39,1,1.13,2.73,2.38,2.85v1Zm4.78-3.92c-.16.42-1,2.5-.22,2.67.31.06,1.37,0,1.95,0h4.88c.58,0,.86-.36.89-.93a7.59,7.59,0,0,0-.57-1.77ZM245.06,16l-2.83,9.3h5.84Z"/></g></g></svg>