<?xml version="1.0" encoding="utf-8"?>
<!-- Generator: Adobe Illustrator 25.3.1, SVG Export Plug-In . SVG Version: 6.00 Build 0)  -->
<svg version="1.1" id="Layer_1" xmlns="http://www.w3.org/2000/svg" xmlns:xlink="http://www.w3.org/1999/xlink" x="0px" y="0px"
	 viewBox="0 0 260.3 39" style="enable-background:new 0 0 260.3 39;" xml:space="preserve">
<g id="Layer_2_1_">
	<g id="Layer_1-2">
		<path d="M41.5,30.7v-1c1-0.2,1.6-1.1,2.1-1.9c1.5-2.8,2.3-6.1,3.3-9.2c0.6-1.5,1-3.1,1.3-4.8c0.1-0.8-1.1-1.2-1.8-1.2v-1h4.8
			l5.8,15.1c0.4,1,1.1,2.7,2.4,2.9v1L41.5,30.7z M46.3,26.8c-0.2,0.4-1,2.5-0.2,2.7c0.3,0.1,1.4,0,2,0h4.9c0.5,0,0.9-0.3,0.9-0.8
			c0,0,0-0.1,0-0.1c-0.1-0.6-0.3-1.2-0.6-1.8L46.3,26.8z M49.6,16l-2.8,9.3h5.8L49.6,16z"/>
		<path d="M38.4,14.5v14l0.9,1l-2.5,2.2l-2.4-2.2l0.9-1v-6.8h-3.8v1.9H30v-1.9h-3.8v7l-3,3.5v-9.9l-1.4-1.4l1.4-1.4v-5.1
			c0.1-0.9-0.5-1.6-1.4-1.7c-0.1,0-0.1,0-0.2,0v-0.9h6.3v0.9c-1.1,0-1.6,0.5-1.6,1.6v5.9H30v-1.6h1.5v1.6h3.8v-5.5
			c0-1.2-0.3-1.9-1.6-1.9v-0.9h6.3v0.9C38.7,12.7,38.4,13.4,38.4,14.5z"/>
		<path d="M15.2,11.8h-1.7h-1h-7v0.8c0.2,0,0.8,0.2,0.8,0.8v11.3h0.9c0-0.9,0.1-2.2,1.7-2.2v9.9l3.1-3.5v-6.4h3.1
			c3,0,5.4-2.4,5.4-5.4v0C20.5,14.2,18.1,11.8,15.2,11.8z M8.9,21.2c-0.1,0-0.1,0-0.2,0c-0.5-0.1-0.9-0.6-0.8-1.1v-7.1
			c0.5,0,1,0.3,1,0.8V21.2z M12.1,20.5l0-6.8c0-0.3,0.3-0.6,0.6-0.6h0.6c2.2,0,4,1.8,4,4s-1.8,4-4,4h-0.6
			C12.3,21.1,12.1,20.8,12.1,20.5z"/>
		<path d="M66.2,16.4v11.8c0,1,0.4,1.5,2,1.5v1h-6.9l-0.1-1.1c1.4,0,1.8-0.4,1.8-1.5V14.8c0-1.4-0.5-2.2-1.8-2.2v-0.9h18.7v0.9
			c-1.3,0-1.8,0.4-1.8,1.2v13.9c0,0.3,0,0.7,0.1,1c1.2,2.3,3.5,3.7,6,3.8v1.1h-0.6c-3.3-0.3-6.3-2.2-8.1-5c-2-2.9-6.4-8.6-6.4-8.6
			L66.2,16.4z M74.9,14c0-0.9-1.4-0.7-2-0.7h-5.7c-0.2,0-0.4,0.1-0.4,0.4c0,0.1,0,0.2,0.1,0.3L75,24.9L74.9,14L74.9,14z"/>
		<path d="M83.6,14.6c-0.2,0.5-0.3,1.2-0.5,2.2h-1.2v-5.1H97v5.1h-1.3c0-0.2-0.2-3.8-1.1-3.8H91v15.4l0.9,0.9l-2.4,2.2l-2.4-2.3
			l0.8-1V13.1h-3.2C84,13.1,83.8,14.1,83.6,14.6z"/>
		<path d="M94.7,30.7v-1c1-0.2,1.6-1.1,2.1-1.9c1.5-2.8,2.3-6.1,3.3-9.2c0.6-1.5,1-3.1,1.3-4.8c0.1-0.8-1.1-1.2-1.8-1.2v-1h4.8
			l5.8,15.1c0.4,1,1.1,2.7,2.4,2.9v1L94.7,30.7z M99.5,26.8c-0.2,0.4-1,2.5-0.2,2.7c0.3,0.1,1.4,0,2,0h4.9c0.5,0,0.9-0.3,0.9-0.8
			c0,0,0-0.1,0-0.1c-0.1-0.6-0.3-1.2-0.6-1.8L99.5,26.8z M102.8,16l-2.8,9.3h5.8L102.8,16z"/>
		<path d="M120.9,31.1c-1.6,0-3-0.7-4.6-0.9c-0.9-0.2-0.6,1-0.6,1.5h-1.1v-7h1c0.5,3.3,1.5,4.8,4.9,4.8c1.7,0,3.6-0.9,3.7-2.4
			c0.2-4.7-10.2-4.9-10.2-10.7c0-0.6,0.2-1.1,0.4-1.6c1-2.2,3.2-3.1,5.7-3.1c1.1,0,2.2,0.2,3.2,0.6c0.5,0.3,1.4,0.4,1.3-0.5h1.4v6.2
			h-0.8c-0.1-0.8-0.3-1.7-0.7-2.4c-0.7-1.8-2.7-2.1-4.4-2.2s-3,0.6-3,2.3c0,2,3.2,3.5,4.9,4.4c2.6,1.4,4.5,2.5,5.2,5.4
			c0.1,0.3,0.3,0.2,0.5,0.2h1C128.1,29.3,124.6,31.1,120.9,31.1z"/>
		<path d="M153,30.8h-6.7v-0.9c0.9,0.1,1.6-0.6,1.7-1.4c0-0.1,0-0.1,0-0.2V14.9l-5.3,3.1v10.6l0.9,1l-2.3,2.1l-2.3-2.1l0.8-0.9V18.1
			l-5.3-3.1v13.1c-0.1,0.9,0.5,1.7,1.3,1.8c0.1,0,0.3,0,0.4,0v0.9h-6.7v-0.9c1.4,0,1.8-0.7,1.8-1.6V14.2c0-0.9-0.4-1.5-1.8-1.5v-0.9
			h23.2v0.9c-1.3,0-1.6,0.5-1.6,1.5v14c0,1,0.5,1.6,1.8,1.6L153,30.8z M139.4,13.2h-4.8c1.6,0.9,3.5,2,5.1,2.9v-2.6
			C139.7,13.3,139.6,13.2,139.4,13.2z M143.3,13.3c-0.1,0-0.5,0.1-0.5,0.2v2.6l5-2.8H143.3z"/>
		<path d="M155.7,30.7v-1c1-0.2,1.6-1.1,2.1-1.9c1.5-2.8,2.3-6.1,3.3-9.2c0.6-1.5,1-3.1,1.3-4.8c0.1-0.8-1.1-1.2-1.8-1.2v-1h4.8
			l5.8,15.1c0.4,1,1.1,2.7,2.4,2.9v1L155.7,30.7z M160.5,26.8c-0.2,0.4-1,2.5-0.2,2.7c0.3,0.1,1.4,0,2,0h4.9c0.5,0,0.9-0.3,0.9-0.8
			c0,0,0-0.1,0-0.1c-0.1-0.6-0.3-1.2-0.6-1.8L160.5,26.8z M163.8,16l-2.8,9.3h5.8L163.8,16z"/>
		<path d="M174.2,11.9h12c0.2,0,0.4,0,0.6,0c0.1,0,0.2-0.1,0.2-0.4h1.1v5.2h-1.2c-0.1-2.2-1.1-3.2-2.6-3.4h-3.9
			c-3.4,0-4.1,5.4-4.1,8.4c0,3.8,1.9,7.9,6,7.9c1.2,0,3.2-0.1,3.2-1.7v-4.4c0-1.6,0.1-2-1.8-2.1v-1h6.2v1c-1.3,0-1.6,0.5-1.6,1.6
			c0,0.3,0,0.6,0,0.9v6.7l-2.9,3.9c0,0,0-2.9,0-3.9c-6.5,2.1-12.1-1.5-12.6-8.6c-0.1-1.3,0.2-6.1,2.8-8c0.7-0.5-0.6-1.2-1.4-1.2
			L174.2,11.9z"/>
		<path d="M201.5,31v0.7h-0.2c-3.1,0-5.1-1.2-7.2-3.4c-1.7-1.9-2.6-4.4-2.5-7c0-5.2,4.1-9.5,9.3-9.6v-0.7c6,0,9.9,4.4,9.9,10.3
			C210.9,26.6,206.7,30.9,201.5,31z M201.3,29.5c4.1,0,6.4-4.5,6.4-8.1c0-2.9-1.6-8.1-6.4-8.1c-4.2,0-6.5,4.1-6.5,7.9
			S197.1,29.5,201.3,29.5L201.3,29.5z"/>
		<path d="M231.5,33.7c-0.7,0-1.1,0-1.4,0c-4.6,0-9.8-8-11.9-11.5h-1.4v6c0,0.9,0.3,1.6,1.6,1.6v1H212v-1c1.3,0,1.5-0.7,1.5-1.6
			V14.1c0-1-0.4-1.4-1.5-1.4v-1h6.3c3.2,0,7,1,7,5.2c0,2.9-1.6,4.5-4.2,5c0.9,1.5,1.8,2.9,2.8,4.3c1.3,2,4.9,6.7,7.6,6.4L231.5,33.7
			z M217.5,13.3c-0.9,0-0.8,0.6-0.8,1.1v6.4c2.7-0.1,5.3-0.9,5.3-4c0.2-1.8-1-3.4-2.8-3.7C218.9,13.3,217.5,13.3,217.5,13.3z"/>
		<path d="M235.3,12.7c-1.2,0-1.4,0.6-1.4,1.4v14.2l0.8,1l-2.3,2.2l-2.4-2.2l0.8-1v-14c0-0.9-0.3-1.6-1.5-1.6v-1h5.9L235.3,12.7z"/>
		<polygon points="232.4,10 229.9,7.6 232.4,5.2 234.8,7.6 		"/>
		<path d="M236.9,30.7v-1c1-0.2,1.6-1.1,2.1-1.9c1.5-2.8,2.3-6.1,3.3-9.2c0.6-1.5,1-3.1,1.3-4.8c0.1-0.8-1.1-1.2-1.8-1.2v-1h4.8
			l5.8,15.1c0.4,1,1.1,2.7,2.4,2.9v1L236.9,30.7z M241.7,26.8c-0.2,0.4-1,2.5-0.2,2.7c0.3,0.1,1.4,0,1.9,0h4.9
			c0.6,0,0.9-0.4,0.9-0.9c-0.1-0.6-0.3-1.2-0.6-1.8L241.7,26.8z M245.1,16l-2.8,9.3h5.8L245.1,16z"/>
	</g>
</g>
</svg>
